<svg width="42" height="25" viewBox="0 0 42 25" fill="none" xmlns="http://www.w3.org/2000/svg">
<path fill-rule="evenodd" clip-rule="evenodd" d="M8.6701 4.38797C9.63682 4.49131 10.476 4.74622 11.1877 5.15288C12.1417 5.68567 12.8604 6.43531 13.3436 7.40177C13.8268 8.35585 14.0685 9.47103 14.0685 10.7473C14.0685 12.0235 13.8268 13.1448 13.3436 14.1113C12.8604 15.0653 12.1417 15.815 11.1877 16.3602C10.476 16.7576 9.63682 17.0067 8.6701 17.1077V18.9738H6.53398V17.0999C5.59729 16.9942 4.78189 16.7478 4.08782 16.3602C3.13375 15.815 2.40891 15.0654 1.91329 14.1113C1.43006 13.1448 1.18839 12.0235 1.18839 10.7473C1.18839 9.47103 1.43006 8.35585 1.91329 7.40177C2.40892 6.43531 3.13375 5.68567 4.08782 5.15288C4.78189 4.75627 5.59729 4.50404 6.53398 4.39595V2.51309H8.6701V4.38797ZM7.26281 13.7493C7.38252 13.7552 7.5075 13.7582 7.63775 13.7582C8.344 13.7582 8.88917 13.6714 9.27328 13.498C9.66977 13.3121 9.94239 13.0024 10.0911 12.5687C10.2398 12.1226 10.3141 11.5155 10.3141 10.7473C10.3141 9.97904 10.2398 9.37809 10.0911 8.94442C10.0845 8.92471 10.0776 8.90531 10.0705 8.88613L7.26281 13.7493ZM7.63775 7.73634C6.93148 7.73634 6.38006 7.82928 5.98356 8.01514C5.59947 8.18861 5.3269 8.49837 5.16583 8.94442C5.01714 9.37809 4.9428 9.97904 4.9428 10.7473C4.9428 11.5155 5.01714 12.1226 5.16583 12.5687C5.19332 12.6427 5.22412 12.7131 5.2581 12.7799L8.15895 7.75548C7.99624 7.74276 7.82251 7.73634 7.63775 7.73634Z" fill="#F5F5F5"/>
<path d="M21.6121 3.16479C22.5756 3.22308 23.378 3.39429 24.0193 3.68042C24.8246 4.03967 25.4132 4.54118 25.785 5.1853C26.1566 5.81715 26.3425 6.56095 26.3426 7.41577C26.3426 8.19638 26.1813 8.84751 25.8592 9.36792C25.5371 9.88818 25.0911 10.3157 24.5213 10.6501C23.9515 10.9722 23.2948 11.226 22.5516 11.4119L19.7635 12.0994C19.4909 12.1613 19.2485 12.2301 19.0379 12.3044C18.8277 12.3663 18.6607 12.4591 18.5369 12.5828C18.4254 12.6943 18.369 12.8555 18.369 13.0662L21.8631 12.6384H26.3055V15.78H21.5809V17.7175H19.4451V15.78H14.6893V13.5867C14.6893 12.8804 14.8074 12.2796 15.0428 11.7839C15.2782 11.2759 15.6623 10.8425 16.1951 10.4832C16.7402 10.1239 17.4585 9.8013 18.3504 9.51636L21.7332 8.43823C22.0056 8.35155 22.2226 8.26514 22.3836 8.17847C22.5447 8.07934 22.6628 7.96741 22.7371 7.84351C22.8114 7.70723 22.8484 7.54591 22.8484 7.36011C22.8484 7.14956 22.7991 6.96968 22.7 6.82104C22.6133 6.66009 22.4148 6.53666 22.1053 6.44995C21.8079 6.36322 21.3427 6.31909 20.7108 6.31909C20.0172 6.31911 19.4847 6.38179 19.1131 6.50562C18.7538 6.61713 18.5053 6.79687 18.369 7.04468C18.2328 7.28 18.1649 7.5896 18.1649 7.97339V8.21558H14.7449V7.93628C14.745 7.0938 14.9494 6.31308 15.3582 5.59448C15.7671 4.86357 16.4175 4.27488 17.3094 3.82886C17.9046 3.52298 18.6274 3.32128 19.4764 3.21948V1.25659H21.6121V3.16479Z" fill="#F5F5F5"/>
<path d="M21.6121 3.16479C22.5756 3.22308 23.378 3.39429 24.0193 3.68042C24.8246 4.03967 25.4132 4.54118 25.785 5.1853C26.1566 5.81715 26.3425 6.56095 26.3426 7.41577C26.3426 8.19638 26.1813 8.84751 25.8592 9.36792C25.5371 9.88818 25.0911 10.3157 24.5213 10.6501C23.9515 10.9722 23.2948 11.226 22.5516 11.4119L19.7635 12.0994C19.4909 12.1613 19.2485 12.2301 19.0379 12.3044C18.8277 12.3663 18.6607 12.4591 18.5369 12.5828C18.4254 12.6943 18.369 12.8555 18.369 13.0662L21.8631 12.6384H26.3055V15.78H21.5809V17.7175H19.4451V15.78H14.6893V13.5867C14.6893 12.8804 14.8074 12.2796 15.0428 11.7839C15.2782 11.2759 15.6623 10.8425 16.1951 10.4832C16.7402 10.1239 17.4585 9.8013 18.3504 9.51636L21.7332 8.43823C22.0056 8.35155 22.2226 8.26514 22.3836 8.17847C22.5447 8.07934 22.6628 7.96741 22.7371 7.84351C22.8114 7.70723 22.8484 7.54591 22.8484 7.36011C22.8484 7.14956 22.7991 6.96968 22.7 6.82104C22.6133 6.66009 22.4148 6.53666 22.1053 6.44995C21.8079 6.36322 21.3427 6.31909 20.7108 6.31909C20.0172 6.31911 19.4847 6.38179 19.1131 6.50562C18.7538 6.61713 18.5053 6.79687 18.369 7.04468C18.2328 7.28 18.1649 7.5896 18.1649 7.97339V8.21558H14.7449V7.93628C14.745 7.0938 14.9494 6.31308 15.3582 5.59448C15.7671 4.86357 16.4175 4.27488 17.3094 3.82886C17.9046 3.52298 18.6274 3.32128 19.4764 3.21948V1.25659H21.6121V3.16479Z" fill="url(#paint0_radial_1305_1146)"/>
<path d="M34.2406 1.84961C35.5571 1.92928 36.59 2.19692 37.3383 2.6582C38.2549 3.20333 38.7132 4.03973 38.7133 5.16699C38.7133 5.88551 38.4964 6.46803 38.0629 6.91406C37.6416 7.36007 37.0159 7.63327 36.1859 7.73242V7.97363C37.1151 8.07279 37.865 8.35831 38.4349 8.8291C39.0169 9.28751 39.3079 9.99359 39.308 10.9473C39.308 12.1739 38.7749 13.0973 37.7094 13.7168C36.8389 14.2288 35.6723 14.5284 34.2094 14.6172V16.4609H32.0736V14.5986C31.187 14.5265 30.4203 14.3705 29.7738 14.126C28.8693 13.779 28.1935 13.2707 27.7474 12.6016C27.3015 11.9201 27.0785 11.0901 27.0785 10.1113V9.81348H30.7953V10.1484C30.7953 10.4582 30.8333 10.6996 30.9076 10.873C30.9819 11.0341 31.1802 11.1461 31.5023 11.208C31.8245 11.2699 32.3508 11.3008 33.0814 11.3008C33.7876 11.3008 34.3331 11.2761 34.7172 11.2266C35.1137 11.177 35.3868 11.0836 35.5355 10.9473C35.684 10.7986 35.7582 10.6001 35.7582 10.3525C35.7581 10.0429 35.6647 9.83218 35.4789 9.7207C35.293 9.59699 34.9958 9.53516 34.5873 9.53516H30.889V6.67285H34.3265C34.6735 6.67285 34.9097 6.61737 35.0336 6.50586C35.1698 6.38199 35.2376 6.2021 35.2377 5.9668C35.2377 5.76863 35.1821 5.61346 35.0707 5.50195C34.9716 5.3781 34.7608 5.29176 34.4388 5.24219C34.1291 5.19263 33.6638 5.16699 33.0443 5.16699C32.4126 5.167 31.9358 5.19881 31.6136 5.26074C31.2917 5.32267 31.0748 5.43995 30.9633 5.61328C30.8518 5.77429 30.7953 6.00975 30.7953 6.31934V6.375H27.0785V6.35645C27.0786 5.42733 27.3076 4.62797 27.766 3.95898C28.2368 3.27756 28.9373 2.75158 29.8666 2.37988C30.5003 2.12639 31.2464 1.9605 32.1049 1.87988V0H34.2406V1.84961Z" fill="#F5F5F5"/>
<path d="M34.2406 1.84961C35.5571 1.92928 36.59 2.19692 37.3383 2.6582C38.2549 3.20333 38.7132 4.03973 38.7133 5.16699C38.7133 5.88551 38.4964 6.46803 38.0629 6.91406C37.6416 7.36007 37.0159 7.63327 36.1859 7.73242V7.97363C37.1151 8.07279 37.865 8.35831 38.4349 8.8291C39.0169 9.28751 39.3079 9.99359 39.308 10.9473C39.308 12.1739 38.7749 13.0973 37.7094 13.7168C36.8389 14.2288 35.6723 14.5284 34.2094 14.6172V16.4609H32.0736V14.5986C31.187 14.5265 30.4203 14.3705 29.7738 14.126C28.8693 13.779 28.1935 13.2707 27.7474 12.6016C27.3015 11.9201 27.0785 11.0901 27.0785 10.1113V9.81348H30.7953V10.1484C30.7953 10.4582 30.8333 10.6996 30.9076 10.873C30.9819 11.0341 31.1802 11.1461 31.5023 11.208C31.8245 11.2699 32.3508 11.3008 33.0814 11.3008C33.7876 11.3008 34.3331 11.2761 34.7172 11.2266C35.1137 11.177 35.3868 11.0836 35.5355 10.9473C35.684 10.7986 35.7582 10.6001 35.7582 10.3525C35.7581 10.0429 35.6647 9.83218 35.4789 9.7207C35.293 9.59699 34.9958 9.53516 34.5873 9.53516H30.889V6.67285H34.3265C34.6735 6.67285 34.9097 6.61737 35.0336 6.50586C35.1698 6.38199 35.2376 6.2021 35.2377 5.9668C35.2377 5.76863 35.1821 5.61346 35.0707 5.50195C34.9716 5.3781 34.7608 5.29176 34.4388 5.24219C34.1291 5.19263 33.6638 5.16699 33.0443 5.16699C32.4126 5.167 31.9358 5.19881 31.6136 5.26074C31.2917 5.32267 31.0748 5.43995 30.9633 5.61328C30.8518 5.77429 30.7953 6.00975 30.7953 6.31934V6.375H27.0785V6.35645C27.0786 5.42733 27.3076 4.62797 27.766 3.95898C28.2368 3.27756 28.9373 2.75158 29.8666 2.37988C30.5003 2.12639 31.2464 1.9605 32.1049 1.87988V0H34.2406V1.84961Z" fill="url(#paint1_radial_1305_1146)"/>
<path d="M8.66986 22.2728H19.4453V20.8587H21.581V22.2728H32.0732V20.8587H34.2089V22.2728H41.3398V24.1575H-6.10352e-05V22.2728H6.53412V20.8587H8.66986V22.2728Z" fill="#F5F5F5"/>
<defs>
<radialGradient id="paint0_radial_1305_1146" cx="0" cy="0" r="1" gradientUnits="userSpaceOnUse" gradientTransform="translate(15.7653 4.05184) rotate(53.3844) scale(18.989 43.8558)">
<stop stop-color="#FBD018"/>
<stop offset="1" stop-color="#FBA23B"/>
</radialGradient>
<radialGradient id="paint1_radial_1305_1146" cx="0" cy="0" r="1" gradientUnits="userSpaceOnUse" gradientTransform="translate(28.2077 2.79524) rotate(52.0519) scale(19.3282 45.2164)">
<stop stop-color="#FBD018"/>
<stop offset="1" stop-color="#FBA23B"/>
</radialGradient>
</defs>
</svg>
