<svg width="9" height="18" viewBox="0 0 9 18" fill="none" xmlns="http://www.w3.org/2000/svg">
<path d="M4.15002 13.15L0.700024 9.7C0.500024 9.5 0.400024 9.26667 0.400024 9C0.400024 8.73333 0.500024 8.5 0.700024 8.3L4.15002 4.85C4.31669 4.68333 4.50002 4.64167 4.70002 4.725C4.90002 4.80833 5.00002 4.96667 5.00002 5.2V12.8C5.00002 13.0333 4.90002 13.1917 4.70002 13.275C4.50002 13.3583 4.31669 13.3167 4.15002 13.15ZM7.00002 17V1C7.00002 0.716667 7.09586 0.479167 7.28752 0.2875C7.47919 0.0958333 7.71669 0 8.00002 0C8.28336 0 8.52086 0.0958333 8.71252 0.2875C8.90419 0.479167 9.00002 0.716667 9.00002 1V17C9.00002 17.2833 8.90419 17.5208 8.71252 17.7125C8.52086 17.9042 8.28336 18 8.00002 18C7.71669 18 7.47919 17.9042 7.28752 17.7125C7.09586 17.5208 7.00002 17.2833 7.00002 17Z" fill="white"/>
</svg>
